<?xml version="1.0" encoding="UTF-8"?> <svg xmlns="http://www.w3.org/2000/svg" width="97" height="79" viewBox="0 0 97 79" fill="none"> <path d="M9.64299 174.577C9.64299 174.577 -9.67064 86.4752 -90.8203 78.344C-90.8203 78.344 -13.8269 60.9407 8.00794 125.739C8.00794 125.739 19.3705 68.3005 97.266 39.4326C97.266 39.4326 26.6749 88.9834 39.6882 166.835L9.64299 174.577Z" fill="#4C9458"></path> <path d="M22.8639 187.492C22.8639 187.492 -9.75074 95.0902 14.8916 50.3034C31.0227 20.9856 75.1168 8.70817 75.1168 8.70817C75.1168 8.70817 45.0095 35.2093 44.3777 57.5973C43.7682 79.1957 20.9559 108.296 33.6986 183.933L22.8639 187.492Z" fill="#4C9458"></path> <path d="M38.8727 173.619C38.8727 173.619 18.8667 121.486 72.2219 81.7761C72.2219 81.7761 22.0772 99.0236 23.5882 152.404C23.5882 152.404 -6.80545 105.329 -67.2578 102.996C-67.2578 102.996 5.76027 123.877 16.3927 181.001L38.8727 173.619Z" fill="#4C9458"></path> <path d="M15.488 192.924C15.488 192.924 -15.1434 82.6166 -18.2114 46.6042C-19.3683 21.5764 -18.0413 14.1853 -9.57434 -7.31503C-9.57434 -7.31503 9.81673 52.332 10.9638 65.95C4.29755 76.7583 4.76205 114.987 22.0589 190.773L15.488 192.924Z" fill="#4C9458"></path> </svg> 