<?xml version="1.0" encoding="UTF-8"?> <svg xmlns="http://www.w3.org/2000/svg" width="47" height="54" viewBox="0 0 47 54" fill="none"> <g clip-path="url(#clip0_145_336)"> <path d="M53.0604 78.6874C53.0604 78.6874 49.2698 39.2484 80.1914 24.7236C80.1914 24.7236 47.6033 28.0154 47.385 58.069C47.385 58.069 35.4755 35.6417 1.04847 34.2697C1.04847 34.2697 35.2739 45.2804 40.2205 79.575L53.0604 78.6874Z" fill="#4C9458"></path> <path d="M49.5217 85.8939C49.5217 85.8939 50.4154 42.8351 34.9106 27.5122C24.7611 17.4817 5.7989 18.402 5.7989 18.402C5.7989 18.402 21.0907 25.3395 24.2367 34.6019C27.2717 43.5376 40.0256 52.5611 44.7923 85.8939H49.5217Z" fill="#4C9458"></path> <path d="M41.4198 82.2963C41.4198 82.2963 42.5563 57.7825 16.3954 48.5175C16.3954 48.5175 38.3847 48.8428 44.6969 71.3413C44.6969 71.3413 50.5808 47.515 74.0977 38.25C74.0977 38.25 48.0298 56.9836 51.2324 82.2963H41.4198Z" fill="#4C9458"></path> <path d="M53.134 87.151C53.134 87.151 50.9291 36.8866 47.4779 21.4275C44.6952 10.8175 43.2159 7.913 37.0977 0.0959014C37.0977 0.0959014 37.1758 27.6633 38.486 33.5073C42.5112 37.1065 47.275 53.1342 50.2665 87.1536L53.134 87.151Z" fill="#4C9458"></path> <path d="M65.0897 63.2419C65.0897 63.2419 66.7948 48.237 52.886 42.7109C52.886 42.7109 67.5444 43.9633 67.6426 55.3975C67.6426 55.3975 76.075 46.2286 91.4208 42.4278C91.4208 42.4278 73.0106 50.8521 70.8652 63.5796L65.0897 63.2419Z" fill="#4C9458"></path> </g> <defs> <clipPath id="clip0_145_336"> <rect width="94" height="54" fill="white"></rect> </clipPath> </defs> </svg> 