<?xml version="1.0" encoding="UTF-8"?> <svg xmlns="http://www.w3.org/2000/svg" width="226" height="120" viewBox="0 0 226 120" fill="none"> <path d="M128.381 187.062C128.381 187.062 119.308 94.307 193.322 60.147C193.322 60.147 115.319 67.8887 114.796 138.57C114.796 138.57 86.2896 85.8245 3.8844 82.5978C3.8844 82.5978 85.807 108.493 97.6474 189.149L128.381 187.062Z" fill="#4C9458"></path> <path d="M119.913 204.01C119.913 204.01 122.052 102.742 84.9394 66.7049C60.6453 43.1146 15.257 45.2791 15.257 45.2791C15.257 45.2791 51.8598 61.5951 59.39 83.3788C66.6546 104.394 97.1826 125.616 108.592 204.01H119.913Z" fill="#4C9458"></path> <path d="M100.518 195.549C100.518 195.549 103.238 137.896 40.6192 116.106C40.6192 116.106 93.2533 116.871 108.362 169.784C108.362 169.784 122.446 113.748 178.736 91.9583C178.736 91.9583 116.34 136.017 124.006 195.549H100.518Z" fill="#4C9458"></path> <path d="M128.553 206.966C128.553 206.966 123.275 88.7519 115.015 52.3942C108.354 27.4411 104.813 20.6102 90.1684 2.22554C90.1684 2.22554 90.3553 67.0599 93.4914 80.8042C103.126 89.269 114.529 126.964 121.689 206.972L128.553 206.966Z" fill="#4C9458"></path> <path d="M157.168 150.735C157.168 150.735 161.25 115.446 127.957 102.449C127.957 102.449 163.044 105.395 163.279 132.286C163.279 132.286 183.463 110.723 220.195 101.784C220.195 101.784 176.128 121.597 170.993 151.53L157.168 150.735Z" fill="#4C9458"></path> <path d="M160.977 157.184C160.977 157.184 157.308 115.085 178.518 106.464C199.728 97.843 216.568 86.974 216.568 86.974C216.568 86.974 195.839 104.709 188.642 107.902C181.445 111.095 171.201 127.358 166.069 157.184H160.977Z" fill="#4C9458"></path> <path d="M167.281 153.014C167.281 153.014 172.874 126.395 201.041 118.105C201.041 118.105 170.549 123.081 163.752 143.212C163.752 143.212 157.417 121.892 132.098 113.602C132.098 113.602 160.164 130.365 156.716 153.014H167.281Z" fill="#4C9458"></path> <path d="M157.098 158.308C157.098 158.308 159.468 113.333 163.182 99.5004C166.177 90.0069 167.77 87.4082 174.356 80.4141C174.356 80.4141 174.275 105.081 172.864 110.31C168.531 113.53 163.403 127.871 160.186 158.311L157.098 158.308Z" fill="#4C9458"></path> </svg> 