<?xml version="1.0" encoding="UTF-8"?> <svg xmlns="http://www.w3.org/2000/svg" width="69" height="33" viewBox="0 0 69 33" fill="none"> <path d="M28.5982 43.1467C28.5982 43.1467 31.1679 21.973 10.2061 14.1751C10.2061 14.1751 32.2976 15.9423 32.4456 32.0772C32.4456 32.0772 45.1541 19.1389 68.2815 13.7756C68.2815 13.7756 40.5356 25.6633 37.3024 43.6232L28.5982 43.1467Z" fill="#4C9458"></path> <path d="M30.9924 47.0156C30.9924 47.0156 28.6825 21.7563 42.0371 16.5837C55.3916 11.4112 65.9944 4.88977 65.9944 4.88977C65.9944 4.88977 52.9428 15.5306 48.4114 17.4465C43.8799 19.3624 37.4299 29.1202 34.1985 47.0156H30.9924Z" fill="#4C9458"></path> <path d="M34.9648 44.5139C34.9648 44.5139 38.4865 28.5425 56.221 23.5684C56.221 23.5684 37.0223 26.5537 32.7433 38.6325C32.7433 38.6325 28.7546 25.8408 12.8125 20.8667C12.8125 20.8667 30.4839 30.9243 28.3128 44.5139H34.9648Z" fill="#4C9458"></path> <path d="M28.5528 47.6904C28.5528 47.6904 30.0446 20.705 32.3833 12.4056C34.2691 6.70953 35.2717 5.15028 39.4188 0.953804C39.4188 0.953804 39.3674 15.7539 38.4796 18.8914C35.7511 20.8235 32.5227 29.428 30.4966 47.6919L28.5528 47.6904Z" fill="#4C9458"></path> </svg> 